Coordinates
version=1
nRows=26
nColumns=22
inDegrees=yes

Units are S.I. units (second, meters, Newtons, ...)
If the header above contains a line with 'inDegrees', this indicates whether rotational values are in degrees (yes) or radians (no).

endheader
time	pelvis_tilt	pelvis_list	pelvis_rotation	pelvis_tx	pelvis_ty	pelvis_tz	hip_flexion_r	hip_adduction_r	hip_rotation_r	knee_angle_r	ankle_angle_r	subtalar_angle_r	hip_flexion_l	hip_adduction_l	hip_rotation_l	knee_angle_l	ankle_angle_l	subtalar_angle_l	lumbar_extension	lumbar_bending	lumbar_rotation
      5.21000000	      0.16982772	     -1.65119677	   -112.85260314	      0.67058267	      0.89088380	      0.40497103	     25.64679363	      0.15537842	    -32.06569173	     -5.62257228	      4.50489317	      2.02775876	    -14.53495079	     -2.81012438	    -27.37609491	    -15.71727565	     14.68034552	      5.98918900	     -9.34918353	     -3.78396853	    -11.90434345
      5.22000000	      0.25396333	     -1.83930675	   -112.64117302	      0.66735268	      0.88964559	      0.41381467	     25.68639470	     -0.63189443	    -32.83767758	     -6.17856237	      4.72299702	      1.92993865	    -15.22474481	     -2.75561085	    -26.84381583	    -15.87274558	     14.44032779	      6.10203308	     -9.35454842	     -3.71993278	    -12.41013007
      5.23000000	      0.29386389	     -2.03793878	   -112.40895771	      0.66397774	      0.88851682	      0.42287930	     25.70189463	     -1.45256380	    -33.39811862	     -7.17540604	      4.92384536	      1.64416164	    -15.92573955	     -2.77211421	    -26.22110788	    -16.09009046	     14.14420990	      6.21505750	     -9.37696714	     -3.59579129	    -12.93794561
      5.24000000	      0.26464316	     -2.23889400	   -112.17731722	      0.66034513	      0.88751338	      0.43212764	     25.65605041	     -2.21973992	    -33.75506362	     -8.45909837	      5.02787515	      0.97717408	    -16.63330884	     -2.89250763	    -25.54491867	    -16.39085399	     13.80715335	      6.36125740	     -9.41501707	     -3.39588123	    -13.47036651
      5.25000000	      0.15376244	     -2.41384100	   -111.96748308	      0.65638091	      0.88661809	      0.44155365	     25.55403790	     -2.86797852	    -33.99344227	     -9.90824080	      5.05551186	      0.33949410	    -17.31707984	     -3.13767269	    -24.84452825	    -16.79634445	     13.40430640	      6.48723598	     -9.43489101	     -3.10343130	    -13.96810139
      5.26000000	     -0.05649253	     -2.55330145	   -111.77540169	      0.65202943	      0.88587196	      0.45111283	     25.37280623	     -3.33736959	    -34.18855557	    -11.38342220	      4.96090505	     -0.31139569	    -17.96181901	     -3.53179861	    -24.10722610	    -17.31827499	     12.92200037	      6.61385486	     -9.43716148	     -2.70791848	    -14.43772651
      5.27000000	     -0.40095525	     -2.64736676	   -111.65745211	      0.64717393	      0.88529130	      0.46077417	     25.10468837	     -3.53888655	    -34.39004570	    -12.77817756	      4.69385108	     -1.22789983	    -18.58177271	     -4.09766593	    -23.45892696	    -17.95400250	     12.37255220	      6.79229378	     -9.41430551	     -2.18153935	    -14.87179368
      5.28000000	     -0.85419833	     -2.68069121	   -111.61125739	      0.64183698	      0.88489340	      0.47044283	     24.77980328	     -3.47764745	    -34.60956401	    -14.02636453	      4.28906679	     -2.29830541	    -19.11895735	     -4.81055713	    -22.80853243	    -18.74063183	     11.66200134	      6.98906607	     -9.35457126	     -1.55366020	    -15.20702289
      5.29000000	     -1.40403745	     -2.67448760	   -111.64342091	      0.63606379	      0.88471123	      0.48005559	     24.40949012	     -3.18404075	    -34.86126161	    -15.14121697	      3.77650202	     -3.55265467	    -19.57060480	     -5.64674664	    -22.19089480	    -19.70382058	     10.84134810	      7.19129621	     -9.28602578	     -0.84688648	    -15.48840011
      5.30000000	     -2.02397907	     -2.61410744	   -111.78810783	      0.62985793	      0.88473964	      0.48952408	     24.03271986	     -2.66314587	    -35.03632855	    -16.10900468	      3.18316829	     -4.98663959	    -19.90225323	     -6.56949887	    -21.61992376	    -20.85418846	      9.84911529	      7.39171010	     -9.19356059	     -0.09027975	    -15.67971734
      5.31000000	     -2.67575960	     -2.50275769	   -112.07937111	      0.62326662	      0.88498239	      0.49877312	     23.68131301	     -1.95640666	    -35.02531500	    -16.96178301	      2.54093658	     -6.50309457	    -20.09324276	     -7.51862925	    -21.09985457	    -22.20105372	      8.65354494	      7.58593335	     -9.07819827	      0.67448115	    -15.74035594
      5.32000000	     -3.29870837	     -2.37224909	   -112.52610596	      0.61637121	      0.88545910	      0.50775627	     23.36662381	     -1.15887492	    -34.76640412	    -17.76069793	      1.97784798	     -8.03944614	    -20.14818730	     -8.40690921	    -20.60115479	    -23.72675342	      7.17404196	      7.79972555	     -8.96072788	      1.37068381	    -15.66919458
      5.33000000	     -3.88888077	     -2.19322324	   -113.12417676	      0.60929728	      0.88612375	      0.51637257	     23.11057306	     -0.27602740	    -34.20023948	    -18.49344185	      1.32461706	     -9.20178578	    -19.98894416	     -9.26129909	    -20.18752969	    -25.52120340	      5.53829371	      7.97217328	     -8.82879430	      2.02275851	    -15.51276276
      5.34000000	     -4.40312103	     -2.01498053	   -113.84563576	      0.60210713	      0.88702331	      0.52465932	     22.87351364	      0.59727688	    -33.41902635	    -19.19051166	      0.74900665	    -10.16402416	    -19.66562445	    -10.00709971	    -19.74837775	    -27.50338516	      3.62854021	      8.17772955	     -8.71122462	      2.56143030	    -15.26319944
      5.35000000	     -4.83910265	     -1.83939758	   -114.66306866	      0.59489850	      0.88812636	      0.53262844	     22.64036704	      1.43334998	    -32.48957280	    -19.84444748	      0.20976019	    -10.83431435	    -19.16824468	    -10.65255535	    -19.29318481	    -29.67602665	      1.52803363	      8.39720833	     -8.60436810	      2.99583033	    -14.95713806
      5.36000000	     -5.19660049	     -1.67996913	   -115.54543240	      0.58770264	      0.88940765	      0.54029500	     22.38378835	      2.21234627	    -31.48479121	    -20.43994881	     -0.26909080	    -11.28356542	    -18.51348830	    -11.20336667	    -18.81152936	    -32.01182370	     -0.69769359	      8.64309471	     -8.51235232	      3.32041761	    -14.62613524
      5.37000000	     -5.46375198	     -1.54270674	   -116.45750361	      0.58060072	      0.89082626	      0.54768469	     22.10036105	      2.90215002	    -30.46428416	    -20.97513395	     -0.62612662	    -11.59707885	    -17.70334121	    -11.64516071	    -18.25422788	    -34.47735404	     -2.96198410	      8.95434193	     -8.42422846	      3.52878905	    -14.27693906
      5.38000000	     -5.66442410	     -1.45807030	   -117.39472814	      0.57360867	      0.89238027	      0.55475736	     21.75661891	      3.51156162	    -29.43199055	    -21.44634558	     -0.92391839	    -11.74839865	    -16.78495091	    -11.99730181	    -17.68591802	    -37.05432655	     -5.14400787	      9.18136051	     -8.38149581	      3.62763354	    -13.93639075
      5.39000000	     -5.78162458	     -1.42052014	   -118.32882760	      0.56679238	      0.89400869	      0.56151719	     21.37559900	      4.01630593	    -28.41863487	    -21.86336354	     -1.08891872	    -11.84190291	    -15.74111685	    -12.24079941	    -17.06004175	    -39.71469352	     -7.15871919	      9.37293764	     -8.36048313	      3.60645789	    -13.58675774
      5.40000000	     -5.82821503	     -1.43184172	   -119.24926630	      0.56018860	      0.89567174	      0.56796246	     20.96044856	      4.42458050	    -27.42890168	    -22.22966955	     -1.12342354	    -11.90401521	    -14.58767085	    -12.38422750	    -16.39193931	    -42.42321812	     -8.92391770	      9.48806424	     -8.36410171	      3.48063650	    -13.23465917
      5.41000000	     -5.82263425	     -1.49448284	   -120.14482399	      0.55380565	      0.89735551	      0.57411113	     20.50154556	      4.75034234	    -26.47905154	    -22.53843146	     -1.05150031	    -11.95448669	    -13.34923299	    -12.44575172	    -15.70963027	    -45.13312832	    -10.39568367	      9.50303328	     -8.39806092	      3.26540402	    -12.88732526
      5.42000000	     -5.77263180	     -1.60463247	   -121.00339160	      0.54767003	      0.89903605	      0.58001237	     19.99997614	      4.99569203	    -25.58506249	    -22.78659189	     -0.87473580	    -12.00772425	    -12.04282058	    -12.42908989	    -15.02105007	    -47.78850473	    -11.54632128	      9.43379063	     -8.45419538	      2.97634564	    -12.56184245
      5.43000000	     -5.69531693	     -1.75811722	   -121.82967359	      0.54176092	      0.90072875	      0.58571228	     19.43971494	      5.18264328	    -24.74584655	    -22.94850890	     -0.63344914	    -12.07292206	    -10.70325100	    -12.33844535	    -14.33541360	    -50.31818722	    -12.37070923	      9.30824342	     -8.53149237	      2.63213672	    -12.24093303
      5.44000000	     -5.60226061	     -1.94833615	   -122.63071044	      0.53605900	      0.90244821	      0.59125725	     18.81333968	      5.32488598	    -23.96464727	    -23.00979857	     -0.34234681	    -12.14875437	     -9.35756791	    -12.18078549	    -13.67106964	    -52.66301796	    -12.89575892	      9.18369855	     -8.62385651	      2.25010354	    -11.91564631
      5.45000000	     -5.48425451	     -2.16014500	   -123.41123338	      0.53056578	      0.90417158	      0.59664660	     18.15251980	      5.42076068	    -23.21376126	    -22.99153656	     -0.02553584	    -12.24268612	     -7.99952763	    -11.95700578	    -13.04392774	    -54.79291599	    -13.08220255	      9.11642125	     -8.71175048	      1.83213281	    -11.62263976
      5.46000000	     -5.35941559	     -2.37983675	   -124.19430187	      0.52522848	      0.90591454	      0.60190706	     17.45339475	      5.49865600	    -22.48173941	    -22.88076119	      0.28908828	    -12.33324296	     -6.65556119	    -11.69485136	    -12.48861467	    -56.66965510	    -12.99299585	      9.16494856	     -8.78864817	      1.40426347	    -11.31894796
